<?xml version="1.0" encoding="UTF-8"?>
<svg id="Layer_1" data-name="Layer 1" xmlns="http://www.w3.org/2000/svg" viewBox="0 0 157.51 38.45">
  <defs>
    <style>
      .cls-1 {
        fill: #ffb100;
        stroke: #ffb100;
        stroke-miterlimit: 10;
        stroke-width: 3px;
      }

      .cls-2 {
        fill: #5d5d5d;
      }

      .cls-3 {
        fill: #020202;
      }
    </style>
  </defs>
  <g>
    <g>
      <ellipse class="cls-1" cx="15.43" cy="7.74" rx=".66" ry=".65"/>
      <ellipse class="cls-1" cx="11.25" cy="10.19" rx=".5" ry=".48"/>
      <ellipse class="cls-1" cx="8.51" cy="14.23" rx=".4" ry=".39"/>
      <ellipse class="cls-1" cx="7.57" cy="18.98" rx=".4" ry=".39"/>
      <ellipse class="cls-1" cx="8.51" cy="23.88" rx=".4" ry=".39"/>
      <ellipse class="cls-1" cx="11.25" cy="28.03" rx=".51" ry=".5"/>
      <ellipse class="cls-1" cx="15.46" cy="30.89" rx=".62" ry=".6"/>
      <ellipse class="cls-1" cx="20.32" cy="32.09" rx=".73" ry=".71"/>
      <ellipse class="cls-1" cx="25.25" cy="31.27" rx=".91" ry=".89"/>
      <ellipse class="cls-1" cx="29.43" cy="28.78" rx="1.1" ry="1.08"/>
      <ellipse class="cls-1" cx="32.25" cy="24.75" rx="1.23" ry="1.2"/>
      <ellipse class="cls-1" cx="33.19" cy="19.96" rx="1.23" ry="1.2"/>
      <ellipse class="cls-1" cx="32.25" cy="15.18" rx="1.23" ry="1.2"/>
      <ellipse class="cls-1" cx="29.47" cy="11.01" rx="1.11" ry="1.09"/>
      <ellipse class="cls-1" cx="25.27" cy="8.18" rx=".87" ry=".85"/>
      <ellipse class="cls-1" cx="20.37" cy="7.03" rx=".66" ry=".64"/>
    </g>
    <g>
      <ellipse class="cls-1" cx="18.76" cy="10.68" rx=".25" ry=".24"/>
      <ellipse class="cls-1" cx="15.52" cy="11.72" rx=".21" ry=".21"/>
      <ellipse class="cls-1" cx="12.98" cy="13.98" rx=".28" ry=".27"/>
      <ellipse class="cls-1" cx="11.35" cy="17.02" rx=".39" ry=".38"/>
      <ellipse class="cls-1" cx="11.05" cy="20.44" rx=".47" ry=".46"/>
      <ellipse class="cls-1" cx="11.98" cy="23.7" rx=".47" ry=".46"/>
      <ellipse class="cls-1" cx="14.09" cy="26.32" rx=".59" ry=".58"/>
      <ellipse class="cls-1" cx="17.14" cy="27.82" rx=".73" ry=".72"/>
      <ellipse class="cls-1" cx="20.47" cy="28.03" rx=".89" ry=".86"/>
      <ellipse class="cls-1" cx="23.72" cy="27.1" rx=".89" ry=".86"/>
      <ellipse class="cls-1" cx="26.35" cy="24.75" rx=".89" ry=".86"/>
      <ellipse class="cls-1" cx="27.86" cy="21.76" rx=".75" ry=".74"/>
      <ellipse class="cls-1" cx="28.23" cy="18.32" rx=".65" ry=".64"/>
      <ellipse class="cls-1" cx="27.28" cy="15.08" rx=".41" ry=".4"/>
      <ellipse class="cls-1" cx="25.13" cy="12.5" rx=".41" ry=".4"/>
      <ellipse class="cls-1" cx="22.13" cy="10.92" rx=".41" ry=".4"/>
    </g>
    <g>
      <ellipse class="cls-1" cx="22.95" cy="14.78" rx=".17" ry=".16"/>
      <ellipse class="cls-1" cx="21.03" cy="13.98" rx=".25" ry=".24"/>
      <ellipse class="cls-1" cx="18.76" cy="13.99" rx=".27" ry=".26"/>
      <ellipse class="cls-1" cx="16.69" cy="14.88" rx=".33" ry=".32"/>
      <ellipse class="cls-1" cx="15.11" cy="16.43" rx=".33" ry=".32"/>
      <ellipse class="cls-1" cx="14.25" cy="18.42" rx=".43" ry=".42"/>
      <ellipse class="cls-1" cx="14.25" cy="20.43" rx=".49" ry=".48"/>
      <ellipse class="cls-1" cx="15.16" cy="22.46" rx=".53" ry=".52"/>
      <ellipse class="cls-1" cx="16.73" cy="23.87" rx=".57" ry=".56"/>
      <ellipse class="cls-1" cx="18.81" cy="24.65" rx=".57" ry=".56"/>
      <ellipse class="cls-1" cx="21" cy="24.59" rx=".5" ry=".5"/>
      <ellipse class="cls-1" cx="23.11" cy="23.71" rx=".44" ry=".43"/>
      <ellipse class="cls-1" cx="24.69" cy="22.25" rx=".33" ry=".33"/>
      <ellipse class="cls-1" cx="25.52" cy="20.25" rx=".29" ry=".28"/>
      <ellipse class="cls-1" cx="25.52" cy="18.12" rx=".23" ry=".23"/>
      <ellipse class="cls-1" cx="24.64" cy="16.2" rx=".2" ry=".2"/>
    </g>
    <g>
      <circle class="cls-1" cx="22.78" cy="20.05" r=".1"/>
      <circle class="cls-1" cx="22.78" cy="18.94" r=".14"/>
      <ellipse class="cls-1" cx="22.43" cy="17.86" rx=".21" ry=".2"/>
      <ellipse class="cls-1" cx="21.62" cy="16.98" rx=".23" ry=".23"/>
      <ellipse class="cls-1" cx="20.59" cy="16.49" rx=".26" ry=".25"/>
      <ellipse class="cls-1" cx="19.42" cy="16.41" rx=".29" ry=".28"/>
      <ellipse class="cls-1" cx="18.34" cy="16.76" rx=".34" ry=".33"/>
      <ellipse class="cls-1" cx="17.48" cy="17.53" rx=".38" ry=".37"/>
      <ellipse class="cls-1" cx="16.95" cy="18.58" rx=".38" ry=".37"/>
      <ellipse class="cls-1" cx="16.95" cy="19.7" rx=".38" ry=".37"/>
      <ellipse class="cls-1" cx="17.34" cy="20.76" rx=".38" ry=".37"/>
      <ellipse class="cls-1" cx="18.1" cy="21.69" rx=".34" ry=".33"/>
      <ellipse class="cls-1" cx="19.22" cy="22.2" rx=".22" ry=".21"/>
      <ellipse class="cls-1" cx="20.36" cy="22.32" rx=".19" ry=".18"/>
      <circle class="cls-1" cx="21.45" cy="21.92" r=".16"/>
      <circle class="cls-1" cx="22.32" cy="21.14" r=".13"/>
    </g>
    <g>
      <ellipse class="cls-1" cx="37.69" cy="19.96" rx=".38" ry=".38"/>
      <ellipse class="cls-1" cx="36.48" cy="26.38" rx=".56" ry=".55"/>
      <ellipse class="cls-1" cx="32.67" cy="31.72" rx=".72" ry=".7"/>
      <ellipse class="cls-1" cx="27.15" cy="35.15" rx=".86" ry=".84"/>
      <ellipse class="cls-1" cx="20.45" cy="36.11" rx=".86" ry=".84"/>
      <ellipse class="cls-1" cx="13.85" cy="34.53" rx="1.23" ry="1.2"/>
      <ellipse class="cls-1" cx="8.19" cy="30.69" rx="1.44" ry="1.41"/>
      <ellipse class="cls-1" cx="4.5" cy="25.07" rx="1.61" ry="1.57"/>
      <ellipse class="cls-1" cx="3.22" cy="18.59" rx="1.72" ry="1.68"/>
      <ellipse class="cls-1" cx="4.48" cy="12.18" rx="1.72" ry="1.68"/>
      <ellipse class="cls-1" cx="8.25" cy="6.82" rx="1.46" ry="1.43"/>
      <ellipse class="cls-1" cx="13.85" cy="3.4" rx="1.22" ry="1.19"/>
      <ellipse class="cls-1" cx="20.46" cy="2.39" rx=".91" ry=".89"/>
      <ellipse class="cls-1" cx="27.07" cy="4.02" rx=".88" ry=".86"/>
      <ellipse class="cls-1" cx="32.69" cy="7.89" rx=".74" ry=".72"/>
      <ellipse class="cls-1" cx="36.33" cy="13.51" rx=".56" ry=".55"/>
    </g>
  </g>
  <g>
    <g>
      <path class="cls-3" d="M53.49,20.67h-4.28v-10.79h4.28c1.58,0,2.9.52,3.94,1.55s1.57,2.32,1.57,3.85-.53,2.81-1.57,3.85c-1.05,1.03-2.36,1.55-3.94,1.55ZM51.41,11.83v6.87h1.9c1.01,0,1.83-.32,2.47-.97.64-.65.96-1.47.96-2.47s-.32-1.83-.96-2.48-1.46-.96-2.47-.96h-1.9Z"/>
      <path class="cls-3" d="M69.97,20.67h-2.36l-.93-2.34h-4.75l-.92,2.34h-2.24l4.38-10.79h2.44l4.38,10.79ZM64.31,12.33l-1.6,4.04h3.2l-1.6-4.04h0Z"/>
      <path class="cls-3" d="M74.39,20.67h-2.21v-8.83h-3.3v-1.96h8.82v1.96h-3.32v8.83h0Z"/>
      <path class="cls-3" d="M87.82,20.67h-2.36l-.93-2.34h-4.75l-.93,2.34h-2.24l4.38-10.79h2.43l4.38,10.79ZM82.16,12.33l-1.6,4.04h3.21l-1.6-4.04Z"/>
      <path class="cls-3" d="M93.17,17.82l2.24-.45c.08.49.3.88.65,1.15.36.27.82.41,1.41.41.53,0,.95-.12,1.29-.36.33-.24.5-.54.5-.9,0-.28-.11-.51-.32-.7-.21-.19-.5-.34-.84-.45-.35-.11-.72-.22-1.13-.32-.41-.1-.82-.23-1.24-.39-.42-.15-.8-.34-1.14-.56-.35-.22-.62-.52-.84-.92s-.32-.86-.32-1.41c0-.9.38-1.66,1.15-2.27.76-.61,1.7-.92,2.81-.92s2.04.28,2.78.83,1.16,1.28,1.29,2.17l-2.24.45c-.08-.47-.29-.85-.62-1.13-.33-.28-.76-.43-1.29-.43-.47,0-.86.11-1.15.33-.3.22-.45.5-.45.84,0,.27.11.49.32.67.21.18.5.32.84.43.35.11.72.21,1.13.31.41.1.82.23,1.24.39.42.16.79.35,1.14.58s.62.55.84.95.32.9.32,1.46c0,.92-.4,1.68-1.19,2.3s-1.78.92-2.94.92-2.12-.27-2.88-.82-1.21-1.27-1.36-2.19h0Z"/>
      <path class="cls-3" d="M104.28,19.22c-1.09-1.07-1.64-2.39-1.64-3.94s.54-2.88,1.64-3.94c1.09-1.07,2.43-1.6,4.04-1.6,1.18,0,2.22.3,3.11.91.89.61,1.54,1.35,1.93,2.22l-2.04.78c-.27-.56-.67-1.01-1.19-1.36s-1.13-.53-1.81-.53c-.96,0-1.76.34-2.41,1.02s-.98,1.52-.98,2.51.32,1.84.98,2.51c.65.68,1.46,1.02,2.41,1.02.68,0,1.28-.18,1.81-.53.53-.35.93-.81,1.19-1.36l2.04.78c-.39.87-1.03,1.61-1.93,2.22s-1.93.91-3.11.91c-1.6,0-2.95-.53-4.04-1.6Z"/>
      <path class="cls-3" d="M116.92,20.67h-2.21v-10.79h2.21v10.79Z"/>
      <path class="cls-3" d="M125.77,20.67h-7.18v-10.79h7.18v1.96h-4.98v2.47h4.82v1.94h-4.82v2.47h4.98v1.96h0Z"/>
      <path class="cls-3" d="M134.7,17.02v-7.14h2.21v10.79h-2.14l-5.3-7.12v7.12h-2.21v-10.79h2.14s5.3,7.14,5.3,7.14Z"/>
      <path class="cls-3" d="M139.89,19.22c-1.09-1.07-1.63-2.39-1.63-3.94s.54-2.88,1.63-3.94c1.09-1.07,2.43-1.6,4.04-1.6,1.18,0,2.22.3,3.12.91s1.54,1.35,1.93,2.22l-2.04.78c-.27-.56-.66-1.01-1.2-1.36-.53-.35-1.13-.53-1.81-.53-.96,0-1.76.34-2.41,1.02-.65.68-.98,1.52-.98,2.51s.32,1.84.98,2.51c.65.68,1.46,1.02,2.41,1.02.68,0,1.28-.18,1.81-.53.53-.35.93-.81,1.2-1.36l2.04.78c-.39.87-1.03,1.61-1.93,2.22s-1.93.91-3.12.91c-1.6,0-2.95-.53-4.04-1.6Z"/>
      <path class="cls-3" d="M157.51,20.67h-7.18v-10.79h7.18v1.96h-4.98v2.47h4.82v1.94h-4.82v2.47h4.98v1.96h0Z"/>
    </g>
    <g>
      <rect class="cls-2" x="100.02" y="26.15" width="1.21" height="6.74"/>
      <polygon class="cls-2" points="141.3 26.15 146.4 26.15 146.4 27.24 144.46 27.24 144.46 32.89 143.24 32.89 143.24 27.24 141.3 27.24 141.3 26.15"/>
      <polygon class="cls-2" points="127.33 26.15 132.42 26.15 132.42 27.24 130.48 27.24 130.48 32.89 129.26 32.89 129.26 27.24 127.33 27.24 127.33 26.15"/>
      <path class="cls-2" d="M138.18,26.15h1.22v3.9c0,1.87-.95,2.95-2.6,2.95-.93,0-2.48-.38-2.48-2.91v-3.94h1.22v3.95c0,1.18.46,1.83,1.28,1.83.9,0,1.35-.61,1.35-1.83v-3.95Z"/>
      <polygon class="cls-2" points="152.28 31.81 152.28 32.89 148.32 32.89 148.32 26.15 152.13 26.15 152.13 27.23 149.53 27.23 149.53 28.84 151.99 28.84 151.99 29.91 149.53 29.91 149.53 31.81 152.28 31.81"/>
      <path class="cls-2" d="M107.87,26.15h1.16v6.74h-1.13l-2.07-3.32c-.32-.52-.59-.97-.81-1.38.02.53.03,1.09.03,1.78v2.91h-1.17v-6.74h1.2l2.09,3.3c.28.43.52.85.74,1.25-.03-.55-.03-1.1-.03-1.7v-2.85h0Z"/>
      <path class="cls-2" d="M115.59,30.96c0,1.4-1.21,2.02-2.42,2.02-.63,0-1.34-.18-1.73-.44l-.12-.08.32-1.07.22.13c.39.24.9.39,1.36.39.7,0,1.13-.34,1.13-.89,0-.42-.18-.74-1.07-1.08-1.21-.43-1.8-1.08-1.8-1.98,0-1.13.93-1.92,2.25-1.92.79,0,1.28.21,1.5.33l.14.08-.35,1.04-.21-.11c-.23-.13-.61-.28-1.11-.28-.74,0-1,.41-1,.75,0,.46.26.7,1.14,1.04,1.22.47,1.75,1.08,1.75,2.05h0Z"/>
      <rect class="cls-2" x="124.2" y="26.15" width="1.21" height="6.74"/>
      <polygon class="cls-2" points="117.19 26.15 122.29 26.15 122.29 27.24 120.34 27.24 120.34 32.89 119.12 32.89 119.12 27.24 117.19 27.24 117.19 26.15"/>
    </g>
  </g>
</svg>