<?xml version="1.0" encoding="UTF-8"?>
<svg id="Layer_1" xmlns="http://www.w3.org/2000/svg" xmlns:bx="https://boxy-svg.com" version="1.1" viewBox="0 0 120 30">
  <!-- Generator: Adobe Illustrator 29.3.1, SVG Export Plug-In . SVG Version: 2.1.0 Build 151)  -->
  <defs>
    <style>
      .st0 {
        fill: #5d5d5d;
      }

      .st1 {
        fill: #020202;
      }

      .st2 {
        fill: #ffb100;
        stroke: #ffb100;
        stroke-miterlimit: 10;
        stroke-width: .5px;
      }
    </style>
  </defs>
  <g>
    <ellipse class="st2" cx="14.5" cy="7.8" rx=".4" ry=".4"/>
    <ellipse class="st2" cx="12" cy="9.2" rx=".3" ry=".3"/>
    <ellipse class="st2" cx="10.4" cy="11.6" rx=".2" ry=".2"/>
    <ellipse class="st2" cx="9.9" cy="14.4" rx=".2" ry=".2"/>
    <ellipse class="st2" cx="10.4" cy="17.2" rx=".2" ry=".2"/>
    <ellipse class="st2" cx="12" cy="19.6" rx=".3" ry=".3"/>
    <ellipse class="st2" cx="14.5" cy="21.3" rx=".4" ry=".4"/>
    <ellipse class="st2" cx="17.3" cy="22" rx=".4" ry=".4"/>
    <ellipse class="st2" cx="20.2" cy="21.5" rx=".5" ry=".5"/>
    <ellipse class="st2" cx="22.6" cy="20.1" rx=".6" ry=".6"/>
    <ellipse class="st2" cx="24.3" cy="17.7" rx=".7" ry=".7"/>
    <ellipse class="st2" cx="24.8" cy="14.9" rx=".7" ry=".7"/>
    <ellipse class="st2" cx="24.3" cy="12.1" rx=".7" ry=".7"/>
    <ellipse class="st2" cx="22.6" cy="9.7" rx=".7" ry=".6"/>
    <ellipse class="st2" cx="20.2" cy="8.1" rx=".5" ry=".5"/>
    <ellipse class="st2" cx="17.3" cy="7.4" rx=".4" ry=".4"/>
  </g>
  <g>
    <circle class="st2" cx="16.4" cy="9.5" r=".1"/>
    <circle class="st2" cx="14.5" cy="10.1" r=".1"/>
    <ellipse class="st2" cx="13" cy="11.4" rx=".2" ry=".2"/>
    <ellipse class="st2" cx="12.1" cy="13.2" rx=".2" ry=".2"/>
    <ellipse class="st2" cx="11.9" cy="15.2" rx=".3" ry=".3"/>
    <ellipse class="st2" cx="12.4" cy="17.1" rx=".3" ry=".3"/>
    <ellipse class="st2" cx="13.7" cy="18.6" rx=".3" ry=".3"/>
    <ellipse class="st2" cx="15.5" cy="19.5" rx=".4" ry=".4"/>
    <ellipse class="st2" cx="17.4" cy="19.6" rx=".5" ry=".5"/>
    <ellipse class="st2" cx="19.3" cy="19.1" rx=".5" ry=".5"/>
    <ellipse class="st2" cx="20.8" cy="17.7" rx=".5" ry=".5"/>
    <ellipse class="st2" cx="21.7" cy="16" rx=".4" ry=".4"/>
    <ellipse class="st2" cx="21.9" cy="14" rx=".4" ry=".4"/>
    <ellipse class="st2" cx="21.4" cy="12.1" rx=".2" ry=".2"/>
    <ellipse class="st2" cx="20.1" cy="10.6" rx=".2" ry=".2"/>
    <ellipse class="st2" cx="18.4" cy="9.7" rx=".2" ry=".2"/>
  </g>
  <g>
    <circle class="st2" cx="18.8" cy="11.9" r="0"/>
    <ellipse class="st2" cx="17.7" cy="11.4" rx=".1" ry=".1"/>
    <ellipse class="st2" cx="16.4" cy="11.4" rx=".2" ry=".2"/>
    <ellipse class="st2" cx="15.2" cy="12" rx=".2" ry=".2"/>
    <ellipse class="st2" cx="14.3" cy="12.9" rx=".2" ry=".2"/>
    <ellipse class="st2" cx="13.8" cy="14" rx=".2" ry=".2"/>
    <ellipse class="st2" cx="13.8" cy="15.2" rx=".3" ry=".3"/>
    <ellipse class="st2" cx="14.3" cy="16.4" rx=".3" ry=".3"/>
    <ellipse class="st2" cx="15.2" cy="17.2" rx=".3" ry=".3"/>
    <ellipse class="st2" cx="16.4" cy="17.7" rx=".3" ry=".3"/>
    <ellipse class="st2" cx="17.7" cy="17.6" rx=".3" ry=".3"/>
    <ellipse class="st2" cx="18.9" cy="17.1" rx=".3" ry=".3"/>
    <ellipse class="st2" cx="19.9" cy="16.3" rx=".2" ry=".2"/>
    <ellipse class="st2" cx="20.3" cy="15.1" rx=".2" ry=".2"/>
    <circle class="st2" cx="20.3" cy="13.9" r=".1"/>
    <circle class="st2" cx="19.8" cy="12.7" r=".1"/>
  </g>
  <g>
    <circle class="st2" cx="18.7" cy="15" r="0"/>
    <circle class="st2" cx="18.7" cy="14.3" r="0"/>
    <circle class="st2" cx="18.5" cy="13.7" r=".1"/>
    <circle class="st2" cx="18.1" cy="13.2" r=".1"/>
    <circle class="st2" cx="17.5" cy="12.9" r=".2"/>
    <ellipse class="st2" cx="16.8" cy="12.9" rx=".2" ry=".2"/>
    <ellipse class="st2" cx="16.2" cy="13.1" rx=".2" ry=".2"/>
    <ellipse class="st2" cx="15.7" cy="13.5" rx=".2" ry=".2"/>
    <ellipse class="st2" cx="15.3" cy="14.1" rx=".2" ry=".2"/>
    <ellipse class="st2" cx="15.3" cy="14.8" rx=".2" ry=".2"/>
    <ellipse class="st2" cx="15.6" cy="15.4" rx=".2" ry=".2"/>
    <ellipse class="st2" cx="16" cy="15.9" rx=".2" ry=".2"/>
    <circle class="st2" cx="16.7" cy="16.2" r=".1"/>
    <circle class="st2" cx="17.3" cy="16.3" r=".1"/>
    <circle class="st2" cx="18" cy="16.1" r="0"/>
    <circle class="st2" cx="18.5" cy="15.6" r="0"/>
  </g>
  <g>
    <ellipse class="st2" cx="27.4" cy="14.9" rx=".2" ry=".2"/>
    <ellipse class="st2" cx="26.7" cy="18.7" rx=".3" ry=".3"/>
    <ellipse class="st2" cx="24.5" cy="21.8" rx=".4" ry=".4"/>
    <ellipse class="st2" cx="21.3" cy="23.8" rx=".5" ry=".5"/>
    <ellipse class="st2" cx="17.4" cy="24.3" rx=".5" ry=".5"/>
    <ellipse class="st2" cx="13.5" cy="23.4" rx=".7" ry=".7"/>
    <ellipse class="st2" cx="10.2" cy="21.2" rx=".8" ry=".8"/>
    <ellipse class="st2" cx="8.1" cy="17.9" rx=".9" ry=".9"/>
    <ellipse class="st2" cx="7.3" cy="14.1" rx="1" ry="1"/>
    <ellipse class="st2" cx="8.1" cy="10.4" rx="1" ry="1"/>
    <ellipse class="st2" cx="10.3" cy="7.3" rx=".9" ry=".8"/>
    <ellipse class="st2" cx="13.5" cy="5.3" rx=".7" ry=".7"/>
    <ellipse class="st2" cx="17.4" cy="4.7" rx=".5" ry=".5"/>
    <ellipse class="st2" cx="21.2" cy="5.6" rx=".5" ry=".5"/>
    <ellipse class="st2" cx="24.5" cy="7.9" rx=".4" ry=".4"/>
    <ellipse class="st2" cx="26.6" cy="11.2" rx=".3" ry=".3"/>
  </g>
  <g>
    <g>
      <path class="st1" d="M37.8,15h-3.3V6.7h3.3c1.2,0,2.2.4,3,1.2s1.2,1.8,1.2,2.9-.4,2.2-1.2,2.9c-.8.8-1.8,1.2-3,1.2ZM36.2,8.2v5.3h1.5c.8,0,1.4-.2,1.9-.7.5-.5.7-1.1.7-1.9s-.2-1.4-.7-1.9-1.1-.7-1.9-.7h-1.5Z"/>
      <path class="st1" d="M50.4,15h-1.8l-.7-1.8h-3.6l-.7,1.8h-1.7l3.4-8.3h1.9l3.4,8.3ZM46.1,8.6l-1.2,3.1h2.5l-1.2-3.1h0Z"/>
      <path class="st1" d="M53.8,15h-1.7v-6.8h-2.5v-1.5h6.8v1.5h-2.5v6.8h0Z"/>
      <path class="st1" d="M64.1,15h-1.8l-.7-1.8h-3.6l-.7,1.8h-1.7l3.4-8.3h1.9l3.4,8.3ZM59.8,8.6l-1.2,3.1h2.5l-1.2-3.1Z"/>
      <path class="st1" d="M68.2,12.8l1.7-.3c0,.4.2.7.5.9.3.2.6.3,1.1.3s.7,0,1-.3c.3-.2.4-.4.4-.7s0-.4-.2-.5c-.2-.1-.4-.3-.6-.3-.3,0-.6-.2-.9-.2-.3,0-.6-.2-1-.3-.3-.1-.6-.3-.9-.4-.3-.2-.5-.4-.6-.7s-.2-.7-.2-1.1c0-.7.3-1.3.9-1.7.6-.5,1.3-.7,2.2-.7s1.6.2,2.1.6.9,1,1,1.7l-1.7.3c0-.4-.2-.7-.5-.9-.3-.2-.6-.3-1-.3s-.7,0-.9.3c-.2.2-.3.4-.3.6s0,.4.2.5c.2.1.4.2.6.3.3,0,.6.2.9.2.3,0,.6.2,1,.3.3.1.6.3.9.4s.5.4.6.7.2.7.2,1.1c0,.7-.3,1.3-.9,1.8s-1.4.7-2.3.7-1.6-.2-2.2-.6-.9-1-1-1.7h0Z"/>
      <path class="st1" d="M76.7,13.9c-.8-.8-1.3-1.8-1.3-3s.4-2.2,1.3-3c.8-.8,1.9-1.2,3.1-1.2s1.7.2,2.4.7c.7.5,1.2,1,1.5,1.7l-1.6.6c-.2-.4-.5-.8-.9-1s-.9-.4-1.4-.4-1.3.3-1.8.8-.8,1.2-.8,1.9.2,1.4.8,1.9c.5.5,1.1.8,1.8.8s1-.1,1.4-.4c.4-.3.7-.6.9-1l1.6.6c-.3.7-.8,1.2-1.5,1.7s-1.5.7-2.4.7-2.3-.4-3.1-1.2Z"/>
      <path class="st1" d="M86.4,15h-1.7V6.7h1.7v8.3Z"/>
      <path class="st1" d="M93.2,15h-5.5V6.7h5.5v1.5h-3.8v1.9h3.7v1.5h-3.7v1.9h3.8v1.5h0Z"/>
      <path class="st1" d="M100,12.2v-5.5h1.7v8.3h-1.6l-4.1-5.5v5.5h-1.7V6.7h1.6s4.1,5.5,4.1,5.5Z"/>
      <path class="st1" d="M104,13.9c-.8-.8-1.3-1.8-1.3-3s.4-2.2,1.3-3c.8-.8,1.9-1.2,3.1-1.2s1.7.2,2.4.7,1.2,1,1.5,1.7l-1.6.6c-.2-.4-.5-.8-.9-1-.4-.3-.9-.4-1.4-.4s-1.3.3-1.8.8c-.5.5-.8,1.2-.8,1.9s.2,1.4.8,1.9c.5.5,1.1.8,1.8.8s1-.1,1.4-.4c.4-.3.7-.6.9-1l1.6.6c-.3.7-.8,1.2-1.5,1.7s-1.5.7-2.4.7-2.3-.4-3.1-1.2Z"/>
      <path class="st1" d="M117.5,15h-5.5V6.7h5.5v1.5h-3.8v1.9h3.7v1.5h-3.7v1.9h3.8v1.5h0Z"/>
    </g>
    <g>
      <rect class="st0" x="73.4" y="19.2" width=".9" height="5.2"/>
      <polygon class="st0" points="105.1 19.2 109 19.2 109 20 107.5 20 107.5 24.3 106.6 24.3 106.6 20 105.1 20 105.1 19.2"/>
      <polygon class="st0" points="94.4 19.2 98.3 19.2 98.3 20 96.8 20 96.8 24.3 95.8 24.3 95.8 20 94.4 20 94.4 19.2"/>
      <path class="st0" d="M102.7,19.2h.9v3c0,1.4-.7,2.3-2,2.3s-1.9-.3-1.9-2.2v-3h.9v3c0,.9.3,1.4,1,1.4s1-.5,1-1.4v-3Z"/>
      <polygon class="st0" points="113.5 23.5 113.5 24.3 110.5 24.3 110.5 19.2 113.4 19.2 113.4 20 111.4 20 111.4 21.2 113.3 21.2 113.3 22.1 111.4 22.1 111.4 23.5 113.5 23.5"/>
      <path class="st0" d="M79.5,19.2h.9v5.2h-.9l-1.6-2.5c-.2-.4-.5-.7-.6-1.1,0,.4,0,.8,0,1.4v2.2h-.9v-5.2h.9l1.6,2.5c.2.3.4.6.6,1,0-.4,0-.8,0-1.3v-2.2h0Z"/>
      <path class="st0" d="M85.4,22.9c0,1.1-.9,1.6-1.9,1.6s-1-.1-1.3-.3h0c0,0,.2-.9.2-.9h.2c.3.3.7.4,1,.4.5,0,.9-.3.9-.7s-.1-.6-.8-.8c-.9-.3-1.4-.8-1.4-1.5s.7-1.5,1.7-1.5,1,.2,1.1.3h.1c0,0-.3.9-.3.9h-.2c-.2-.2-.5-.3-.9-.3-.6,0-.8.3-.8.6s.2.5.9.8c.9.4,1.3.8,1.3,1.6h0Z"/>
      <rect class="st0" x="92" y="19.2" width=".9" height="5.2"/>
      <polygon class="st0" points="86.6 19.2 90.5 19.2 90.5 20 89 20 89 24.3 88.1 24.3 88.1 20 86.6 20 86.6 19.2"/>
    </g>
  </g>
</svg>