<?xml version="1.0" encoding="UTF-8"?>
<svg id="Layer_1" data-name="Layer 1" xmlns="http://www.w3.org/2000/svg" viewBox="0 0 625.53 144.82">
  <defs>
    <style>
      .cls-1 {
        fill: #ffb100;
        stroke: #ffb100;
        stroke-miterlimit: 10;
        stroke-width: 3px;
      }

      .cls-2 {
        fill: #5d5d5d;
      }

      .cls-3 {
        fill: #020202;
      }
    </style>
  </defs>
  <g>
    <g>
      <ellipse class="cls-1" cx="57.2" cy="26.44" rx="2.65" ry="2.59"/>
      <ellipse class="cls-1" cx="40.48" cy="36.27" rx="1.99" ry="1.94"/>
      <ellipse class="cls-1" cx="29.52" cy="52.42" rx="1.6" ry="1.56"/>
      <ellipse class="cls-1" cx="25.77" cy="71.43" rx="1.6" ry="1.56"/>
      <ellipse class="cls-1" cx="29.52" cy="91.03" rx="1.6" ry="1.56"/>
      <ellipse class="cls-1" cx="40.48" cy="107.62" rx="2.03" ry="1.99"/>
      <ellipse class="cls-1" cx="57.35" cy="119.07" rx="2.47" ry="2.41"/>
      <ellipse class="cls-1" cx="76.76" cy="123.88" rx="2.9" ry="2.83"/>
      <ellipse class="cls-1" cx="96.48" cy="120.59" rx="3.63" ry="3.55"/>
      <ellipse class="cls-1" cx="113.22" cy="110.62" rx="4.41" ry="4.31"/>
      <ellipse class="cls-1" cx="124.5" cy="94.52" rx="4.92" ry="4.81"/>
      <ellipse class="cls-1" cx="128.28" cy="75.34" rx="4.92" ry="4.81"/>
      <ellipse class="cls-1" cx="124.5" cy="56.23" rx="4.92" ry="4.81"/>
      <ellipse class="cls-1" cx="113.36" cy="39.52" rx="4.46" ry="4.36"/>
      <ellipse class="cls-1" cx="96.58" cy="28.22" rx="3.47" ry="3.39"/>
      <ellipse class="cls-1" cx="76.99" cy="23.64" rx="2.64" ry="2.58"/>
    </g>
    <g>
      <ellipse class="cls-1" cx="70.56" cy="38.21" rx=".99" ry=".97"/>
      <ellipse class="cls-1" cx="57.59" cy="42.37" rx=".85" ry=".83"/>
      <ellipse class="cls-1" cx="47.42" cy="51.42" rx="1.12" ry="1.09"/>
      <ellipse class="cls-1" cx="40.92" cy="63.58" rx="1.55" ry="1.52"/>
      <ellipse class="cls-1" cx="39.68" cy="77.26" rx="1.87" ry="1.83"/>
      <ellipse class="cls-1" cx="43.43" cy="90.31" rx="1.87" ry="1.83"/>
      <ellipse class="cls-1" cx="51.84" cy="100.79" rx="2.37" ry="2.32"/>
      <ellipse class="cls-1" cx="64.05" cy="106.76" rx="2.92" ry="2.86"/>
      <ellipse class="cls-1" cx="77.38" cy="107.62" rx="3.54" ry="3.46"/>
      <ellipse class="cls-1" cx="90.36" cy="103.91" rx="3.54" ry="3.46"/>
      <ellipse class="cls-1" cx="100.89" cy="94.52" rx="3.54" ry="3.46"/>
      <ellipse class="cls-1" cx="106.94" cy="82.55" rx="3" ry="2.94"/>
      <ellipse class="cls-1" cx="108.41" cy="68.76" rx="2.6" ry="2.54"/>
      <ellipse class="cls-1" cx="104.63" cy="55.82" rx="1.65" ry="1.61"/>
      <ellipse class="cls-1" cx="96.03" cy="45.49" rx="1.65" ry="1.61"/>
      <ellipse class="cls-1" cx="84" cy="39.18" rx="1.65" ry="1.61"/>
    </g>
    <g>
      <ellipse class="cls-1" cx="87.29" cy="54.62" rx=".66" ry=".64"/>
      <ellipse class="cls-1" cx="79.63" cy="51.42" rx=".99" ry=".96"/>
      <ellipse class="cls-1" cx="70.56" cy="51.47" rx="1.07" ry="1.04"/>
      <ellipse class="cls-1" cx="62.26" cy="55.02" rx="1.31" ry="1.28"/>
      <ellipse class="cls-1" cx="55.93" cy="61.21" rx="1.31" ry="1.28"/>
      <ellipse class="cls-1" cx="52.48" cy="69.17" rx="1.7" ry="1.66"/>
      <ellipse class="cls-1" cx="52.48" cy="77.23" rx="1.96" ry="1.92"/>
      <ellipse class="cls-1" cx="56.14" cy="85.34" rx="2.13" ry="2.09"/>
      <ellipse class="cls-1" cx="62.42" cy="90.98" rx="2.28" ry="2.23"/>
      <ellipse class="cls-1" cx="70.72" cy="94.1" rx="2.28" ry="2.23"/>
      <ellipse class="cls-1" cx="79.48" cy="93.85" rx="2.02" ry="1.98"/>
      <ellipse class="cls-1" cx="87.93" cy="90.34" rx="1.77" ry="1.73"/>
      <ellipse class="cls-1" cx="94.26" cy="84.5" rx="1.34" ry="1.31"/>
      <ellipse class="cls-1" cx="97.6" cy="76.49" rx="1.16" ry="1.13"/>
      <ellipse class="cls-1" cx="97.6" cy="67.98" rx=".92" ry=".9"/>
      <ellipse class="cls-1" cx="94.06" cy="60.29" rx=".82" ry=".8"/>
    </g>
    <g>
      <ellipse class="cls-1" cx="86.63" cy="75.71" rx=".42" ry=".41"/>
      <ellipse class="cls-1" cx="86.63" cy="71.26" rx=".57" ry=".56"/>
      <ellipse class="cls-1" cx="85.24" cy="66.96" rx=".83" ry=".81"/>
      <ellipse class="cls-1" cx="81.99" cy="63.44" rx=".93" ry=".91"/>
      <ellipse class="cls-1" cx="77.87" cy="61.46" rx="1.03" ry="1.01"/>
      <ellipse class="cls-1" cx="73.19" cy="61.16" rx="1.15" ry="1.12"/>
      <ellipse class="cls-1" cx="68.87" cy="62.53" rx="1.36" ry="1.33"/>
      <ellipse class="cls-1" cx="65.43" cy="65.63" rx="1.52" ry="1.49"/>
      <ellipse class="cls-1" cx="63.32" cy="69.84" rx="1.52" ry="1.49"/>
      <ellipse class="cls-1" cx="63.32" cy="74.32" rx="1.52" ry="1.49"/>
      <ellipse class="cls-1" cx="64.85" cy="78.56" rx="1.52" ry="1.49"/>
      <ellipse class="cls-1" cx="67.89" cy="82.25" rx="1.35" ry="1.32"/>
      <ellipse class="cls-1" cx="72.36" cy="84.31" rx=".87" ry=".85"/>
      <ellipse class="cls-1" cx="76.94" cy="84.76" rx=".75" ry=".73"/>
      <ellipse class="cls-1" cx="81.31" cy="83.16" rx=".64" ry=".63"/>
      <ellipse class="cls-1" cx="84.78" cy="80.05" rx=".52" ry=".51"/>
    </g>
    <g>
      <ellipse class="cls-1" cx="146.27" cy="75.34" rx="1.54" ry="1.51"/>
      <ellipse class="cls-1" cx="141.43" cy="101.03" rx="2.25" ry="2.2"/>
      <ellipse class="cls-1" cx="126.16" cy="122.36" rx="2.88" ry="2.81"/>
      <ellipse class="cls-1" cx="104.08" cy="136.12" rx="3.44" ry="3.37"/>
      <ellipse class="cls-1" cx="77.31" cy="139.95" rx="3.44" ry="3.37"/>
      <ellipse class="cls-1" cx="50.9" cy="133.62" rx="4.9" ry="4.79"/>
      <ellipse class="cls-1" cx="28.27" cy="118.26" rx="5.75" ry="5.62"/>
      <ellipse class="cls-1" cx="13.51" cy="95.76" rx="6.44" ry="6.29"/>
      <ellipse class="cls-1" cx="8.4" cy="69.86" rx="6.9" ry="6.74"/>
      <ellipse class="cls-1" cx="13.42" cy="44.21" rx="6.9" ry="6.74"/>
      <ellipse class="cls-1" cx="28.5" cy="22.78" rx="5.85" ry="5.72"/>
      <ellipse class="cls-1" cx="50.88" cy="9.11" rx="4.88" ry="4.77"/>
      <ellipse class="cls-1" cx="77.35" cy="5.07" rx="3.65" ry="3.57"/>
      <ellipse class="cls-1" cx="103.79" cy="11.59" rx="3.5" ry="3.42"/>
      <ellipse class="cls-1" cx="126.26" cy="27.04" rx="2.95" ry="2.88"/>
      <ellipse class="cls-1" cx="140.82" cy="49.54" rx="2.24" ry="2.19"/>
    </g>
  </g>
  <g>
    <g>
      <path class="cls-3" d="M209.47,78.17h-17.14v-43.16h17.14c6.33,0,11.59,2.07,15.78,6.2,4.19,4.13,6.29,9.26,6.29,15.38s-2.1,11.25-6.29,15.38c-4.19,4.13-9.45,6.2-15.78,6.2ZM201.15,42.84v27.5h7.58c4.03,0,7.32-1.29,9.87-3.88,2.55-2.59,3.82-5.88,3.82-9.86s-1.27-7.33-3.82-9.9c-2.55-2.57-5.84-3.85-9.87-3.85h-7.58Z"/>
      <path class="cls-3" d="M275.38,78.17h-9.43l-3.7-9.37h-18.99l-3.7,9.37h-8.94l17.51-43.16h9.74l17.51,43.16ZM252.76,44.82l-6.41,16.15h12.82l-6.41-16.15Z"/>
      <path class="cls-3" d="M293.08,78.17h-8.82v-35.33h-13.19v-7.83h35.27v7.83h-13.26v35.33Z"/>
      <path class="cls-3" d="M346.78,78.17h-9.43l-3.7-9.37h-18.99l-3.7,9.37h-8.94l17.51-43.16h9.74l17.51,43.16ZM324.15,44.82l-6.41,16.15h12.82l-6.41-16.15Z"/>
      <path class="cls-3" d="M368.18,66.77l8.94-1.79c.33,1.97,1.2,3.51,2.62,4.59,1.42,1.09,3.3,1.63,5.64,1.63,2.1,0,3.81-.48,5.15-1.45,1.34-.97,2-2.17,2-3.61,0-1.11-.43-2.04-1.29-2.81-.86-.76-1.98-1.37-3.36-1.82-1.38-.45-2.89-.88-4.53-1.29-1.64-.41-3.3-.92-4.96-1.54-1.66-.62-3.19-1.36-4.56-2.22-1.38-.86-2.5-2.09-3.36-3.67-.86-1.58-1.29-3.46-1.29-5.64,0-3.62,1.53-6.65,4.59-9.09,3.06-2.45,6.81-3.67,11.25-3.67s8.18,1.11,11.1,3.33c2.92,2.22,4.64,5.12,5.18,8.69l-8.94,1.79c-.33-1.89-1.16-3.4-2.5-4.53-1.34-1.13-3.05-1.7-5.15-1.7-1.89,0-3.43.44-4.62,1.33-1.19.88-1.79,2-1.79,3.36,0,1.07.43,1.96,1.29,2.68.86.72,1.98,1.29,3.36,1.73,1.38.43,2.89.85,4.53,1.26,1.64.41,3.3.94,4.96,1.57,1.67.64,3.18,1.41,4.56,2.31,1.38.9,2.5,2.18,3.36,3.82.86,1.64,1.29,3.6,1.29,5.86,0,3.66-1.59,6.72-4.78,9.19-3.19,2.47-7.1,3.7-11.75,3.7s-8.49-1.09-11.53-3.27c-3.04-2.18-4.85-5.1-5.43-8.76Z"/>
      <path class="cls-3" d="M412.63,72.38c-4.36-4.27-6.54-9.54-6.54-15.78s2.18-11.51,6.54-15.78c4.36-4.27,9.74-6.41,16.15-6.41,4.73,0,8.88,1.21,12.45,3.64,3.58,2.43,6.14,5.39,7.71,8.88l-8.14,3.14c-1.07-2.22-2.66-4.04-4.78-5.46-2.12-1.42-4.53-2.13-7.24-2.13-3.82,0-7.04,1.36-9.65,4.07-2.61,2.71-3.92,6.06-3.92,10.05s1.3,7.34,3.92,10.05c2.61,2.71,5.83,4.07,9.65,4.07,2.71,0,5.13-.71,7.24-2.13,2.12-1.42,3.71-3.24,4.78-5.46l8.14,3.14c-1.56,3.49-4.13,6.45-7.71,8.88-3.58,2.43-7.73,3.64-12.45,3.64-6.41,0-11.8-2.14-16.15-6.41Z"/>
      <path class="cls-3" d="M463.19,78.17h-8.82v-43.16h8.82v43.16Z"/>
      <path class="cls-3" d="M498.58,78.17h-28.73v-43.16h28.73v7.83h-19.92v9.87h19.3v7.77h-19.3v9.87h19.92v7.83Z"/>
      <path class="cls-3" d="M534.28,63.56v-28.55h8.82v43.16h-8.57l-21.21-28.49v28.49h-8.82v-43.16h8.57l21.21,28.55Z"/>
      <path class="cls-3" d="M555.06,72.38c-4.36-4.27-6.54-9.54-6.54-15.78s2.18-11.51,6.54-15.78c4.36-4.27,9.74-6.41,16.15-6.41,4.73,0,8.88,1.21,12.46,3.64,3.58,2.43,6.14,5.39,7.71,8.88l-8.14,3.14c-1.07-2.22-2.66-4.04-4.78-5.46-2.12-1.42-4.53-2.13-7.24-2.13-3.82,0-7.04,1.36-9.65,4.07-2.61,2.71-3.92,6.06-3.92,10.05s1.3,7.34,3.92,10.05c2.61,2.71,5.83,4.07,9.65,4.07,2.71,0,5.13-.71,7.24-2.13,2.12-1.42,3.71-3.24,4.78-5.46l8.14,3.14c-1.56,3.49-4.13,6.45-7.71,8.88-3.58,2.43-7.73,3.64-12.46,3.64-6.41,0-11.8-2.14-16.15-6.41Z"/>
      <path class="cls-3" d="M625.53,78.17h-28.73v-43.16h28.73v7.83h-19.92v9.87h19.3v7.77h-19.3v9.87h19.92v7.83Z"/>
    </g>
    <g>
      <rect class="cls-2" x="395.58" y="100.08" width="4.85" height="26.97"/>
      <polygon class="cls-2" points="560.72 100.08 581.1 100.08 581.1 104.44 573.33 104.44 573.33 127.04 568.45 127.04 568.45 104.44 560.72 104.44 560.72 100.08"/>
      <polygon class="cls-2" points="504.81 100.08 525.18 100.08 525.18 104.44 517.42 104.44 517.42 127.04 512.53 127.04 512.53 104.44 504.81 104.44 504.81 100.08"/>
      <path class="cls-2" d="M548.22,100.08h4.88v15.59c0,7.49-3.79,11.79-10.39,11.79-3.7,0-9.9-1.51-9.9-11.63v-15.75h4.88v15.82c0,4.72,1.82,7.32,5.13,7.32,3.58,0,5.4-2.46,5.4-7.32v-15.82Z"/>
      <polygon class="cls-2" points="604.61 122.73 604.61 127.04 588.76 127.04 588.76 100.08 604.04 100.08 604.04 104.4 593.61 104.4 593.61 110.86 603.48 110.86 603.48 115.14 593.61 115.14 593.61 122.73 604.61 122.73"/>
      <path class="cls-2" d="M426.97,100.08h4.65v26.97h-4.53l-8.29-13.26c-1.29-2.07-2.36-3.87-3.25-5.52.07,2.11.1,4.37.1,7.14v11.63h-4.66v-26.97h4.8l8.37,13.21c1.1,1.74,2.07,3.39,2.94,5.01-.1-2.21-.13-4.4-.13-6.82v-11.41Z"/>
      <path class="cls-2" d="M457.85,119.33c0,5.59-4.86,8.09-9.67,8.09-2.53,0-5.37-.72-6.92-1.75l-.48-.32,1.29-4.28.87.53c1.57.97,3.61,1.54,5.46,1.54,2.79,0,4.53-1.36,4.53-3.55,0-1.69-.7-2.94-4.28-4.31-4.84-1.72-7.21-4.31-7.21-7.93,0-4.52,3.7-7.68,8.99-7.68,3.16,0,5.11.84,6,1.34l.56.32-1.41,4.17-.82-.45c-.93-.51-2.45-1.11-4.44-1.11-2.95,0-4,1.63-4,3.02,0,1.84,1.06,2.81,4.54,4.16,4.89,1.89,6.98,4.34,6.98,8.19Z"/>
      <rect class="cls-2" x="492.3" y="100.08" width="4.85" height="26.97"/>
      <polygon class="cls-2" points="464.27 100.08 484.64 100.08 484.64 104.44 476.87 104.44 476.87 127.04 471.99 127.04 471.99 104.44 464.27 104.44 464.27 100.08"/>
    </g>
  </g>
</svg>